<svg width="187" height="20" viewBox="0 0 187 20" fill="none" xmlns="http://www.w3.org/2000/svg">
<g clip-path="url(#clip0_1125_1284)">
<mask id="mask0_1125_1284" style="mask-type:luminance" maskUnits="userSpaceOnUse" x="0" y="0" width="187" height="20">
<path d="M184 0H3C1.34315 0 0 1.34315 0 3V17C0 18.6569 1.34315 20 3 20H184C185.657 20 187 18.6569 187 17V3C187 1.34315 185.657 0 184 0Z" fill="white"/>
</mask>
<g mask="url(#mask0_1125_1284)">
<path d="M74 0H0V20H74V0Z" fill="#555555"/>
<path d="M187 0H74V20H187V0Z" fill="#FF0000"/>
<path d="M187 0H0V20H187V0Z" fill="url(#paint0_linear_1125_1284)"/>
</g>
<path d="M18.6911 5.19226C18.6108 4.76849 18.4542 4.38216 18.2368 4.07174C18.0194 3.76133 17.7488 3.53767 17.452 3.42305C16.3655 3 11.9929 3 11.9929 3C11.9929 3 7.62022 3.01284 6.53385 3.43588C6.23708 3.55053 5.96653 3.7742 5.74914 4.08461C5.53174 4.39502 5.3751 4.78134 5.29481 5.2051C4.96617 7.96162 4.83867 12.1616 5.3038 14.8077C5.38409 15.2315 5.54073 15.6178 5.75813 15.9282C5.97552 16.2386 6.24608 16.4623 6.54285 16.577C7.6293 17 12.0019 17 12.0019 17C12.0019 17 16.3745 17 17.461 16.577C17.7578 16.4623 18.0283 16.2386 18.2457 15.9282C18.4631 15.6178 18.6198 15.2315 18.7 14.8077C19.0466 12.0474 19.1534 7.84999 18.6911 5.19238" fill="#FF0000"/>
<path d="M10.6011 13L14.2285 10.0001L10.6011 7V13Z" fill="white"/>
<path d="M30.3438 7.00244L27.5293 11.4927V15H26.4658V11.6055L23.6406 7.00244H24.8169L27.0029 10.5796L29.2104 7.00244H30.3438ZM35.7847 12.0029C35.7847 12.9805 35.534 13.7521 35.0327 14.3179C34.5314 14.8836 33.86 15.1665 33.0186 15.1665C32.1699 15.1665 31.495 14.8836 30.9937 14.3179C30.4959 13.7521 30.2471 12.9805 30.2471 12.0029C30.2471 11.0254 30.4959 10.2537 30.9937 9.68799C31.495 9.11865 32.1699 8.83398 33.0186 8.83398C33.86 8.83398 34.5314 9.11865 35.0327 9.68799C35.534 10.2537 35.7847 11.0254 35.7847 12.0029ZM34.7427 12.0029C34.7427 11.2259 34.5905 10.6494 34.2861 10.2734C33.9818 9.89388 33.5592 9.7041 33.0186 9.7041C32.4707 9.7041 32.0446 9.89388 31.7402 10.2734C31.4395 10.6494 31.2891 11.2259 31.2891 12.0029C31.2891 12.7549 31.4412 13.326 31.7456 13.7163C32.05 14.103 32.4743 14.2964 33.0186 14.2964C33.5557 14.2964 33.9764 14.1048 34.2808 13.7217C34.5887 13.335 34.7427 12.762 34.7427 12.0029ZM42.3267 15H41.3169V14.334C40.9767 14.6025 40.6509 14.8084 40.3394 14.9517C40.0278 15.0949 39.6841 15.1665 39.3081 15.1665C38.6779 15.1665 38.1873 14.9749 37.8364 14.5918C37.4855 14.2051 37.3101 13.6393 37.3101 12.8945V9.00049H38.3198V12.4165C38.3198 12.7209 38.3341 12.9823 38.3628 13.2007C38.3914 13.4155 38.4523 13.5999 38.5454 13.7539C38.6421 13.9115 38.7674 14.026 38.9214 14.0977C39.0754 14.1693 39.2992 14.2051 39.5928 14.2051C39.8542 14.2051 40.1388 14.137 40.4468 14.001C40.7583 13.8649 41.0483 13.6912 41.3169 13.48V9.00049H42.3267V15ZM50.0986 7.94775H47.2412V15H46.1777V7.94775H43.3203V7.00244H50.0986V7.94775ZM54.9917 15H53.9819V14.334C53.6418 14.6025 53.3159 14.8084 53.0044 14.9517C52.6929 15.0949 52.3491 15.1665 51.9731 15.1665C51.3429 15.1665 50.8524 14.9749 50.5015 14.5918C50.1506 14.2051 49.9751 13.6393 49.9751 12.8945V9.00049H50.9849V12.4165C50.9849 12.7209 50.9992 12.9823 51.0278 13.2007C51.0565 13.4155 51.1174 13.5999 51.2104 13.7539C51.3071 13.9115 51.4325 14.026 51.5864 14.0977C51.7404 14.1693 51.9642 14.2051 52.2578 14.2051C52.5192 14.2051 52.8039 14.137 53.1118 14.001C53.4233 13.8649 53.7134 13.6912 53.9819 13.48V9.00049H54.9917V15ZM62.2588 11.9546C62.2588 12.4559 62.1872 12.9071 62.0439 13.3081C61.9043 13.7091 61.7145 14.0457 61.4746 14.3179C61.2204 14.6007 60.9411 14.8138 60.6367 14.957C60.3324 15.0967 59.9976 15.1665 59.6323 15.1665C59.2922 15.1665 58.995 15.1253 58.7407 15.043C58.4865 14.9642 58.2358 14.8568 57.9888 14.7207L57.9243 15H56.979V6.64258H57.9888V9.62891C58.2716 9.39616 58.5724 9.20638 58.8911 9.05957C59.2098 8.90918 59.5679 8.83398 59.9653 8.83398C60.6743 8.83398 61.2329 9.10612 61.6411 9.65039C62.0529 10.1947 62.2588 10.9627 62.2588 11.9546ZM61.2168 11.9814C61.2168 11.2653 61.0986 10.7228 60.8623 10.354C60.626 9.98161 60.2446 9.79541 59.7183 9.79541C59.4246 9.79541 59.1274 9.85986 58.8267 9.98877C58.5259 10.1141 58.2466 10.277 57.9888 10.4775V13.915C58.2752 14.0439 58.5205 14.1335 58.7246 14.1836C58.9323 14.2337 59.1668 14.2588 59.4282 14.2588C59.9868 14.2588 60.4237 14.0762 60.7388 13.7109C61.0575 13.3421 61.2168 12.7656 61.2168 11.9814ZM68.8545 12.105H64.4341C64.4341 12.4738 64.4896 12.7961 64.6006 13.0718C64.7116 13.3439 64.8638 13.5677 65.0571 13.7432C65.2433 13.915 65.4635 14.0439 65.7178 14.1299C65.9756 14.2158 66.2585 14.2588 66.5664 14.2588C66.9746 14.2588 67.3846 14.1782 67.7964 14.0171C68.2118 13.8524 68.5072 13.6912 68.6826 13.5337H68.7363V14.6348C68.3962 14.778 68.0488 14.8979 67.6943 14.9946C67.3398 15.0913 66.9674 15.1396 66.5771 15.1396C65.5817 15.1396 64.8047 14.8711 64.2461 14.334C63.6875 13.7933 63.4082 13.027 63.4082 12.0352C63.4082 11.054 63.675 10.2752 64.2085 9.69873C64.7456 9.12223 65.451 8.83398 66.3247 8.83398C67.134 8.83398 67.757 9.07031 68.1938 9.54297C68.6343 10.0156 68.8545 10.687 68.8545 11.5571V12.105ZM67.8716 11.3315C67.868 10.8016 67.7337 10.3916 67.4688 10.1016C67.2074 9.81152 66.8081 9.6665 66.271 9.6665C65.7303 9.6665 65.2988 9.82585 64.9766 10.1445C64.6579 10.4632 64.4771 10.8589 64.4341 11.3315H67.8716Z" fill="#010101" fill-opacity="0.3"/>
<path d="M30.3438 6.00244L27.5293 10.4927V14H26.4658V10.6055L23.6406 6.00244H24.8169L27.0029 9.57959L29.2104 6.00244H30.3438ZM35.7847 11.0029C35.7847 11.9805 35.534 12.7521 35.0327 13.3179C34.5314 13.8836 33.86 14.1665 33.0186 14.1665C32.1699 14.1665 31.495 13.8836 30.9937 13.3179C30.4959 12.7521 30.2471 11.9805 30.2471 11.0029C30.2471 10.0254 30.4959 9.25374 30.9937 8.68799C31.495 8.11865 32.1699 7.83398 33.0186 7.83398C33.86 7.83398 34.5314 8.11865 35.0327 8.68799C35.534 9.25374 35.7847 10.0254 35.7847 11.0029ZM34.7427 11.0029C34.7427 10.2259 34.5905 9.64941 34.2861 9.27344C33.9818 8.89388 33.5592 8.7041 33.0186 8.7041C32.4707 8.7041 32.0446 8.89388 31.7402 9.27344C31.4395 9.64941 31.2891 10.2259 31.2891 11.0029C31.2891 11.7549 31.4412 12.326 31.7456 12.7163C32.05 13.103 32.4743 13.2964 33.0186 13.2964C33.5557 13.2964 33.9764 13.1048 34.2808 12.7217C34.5887 12.335 34.7427 11.762 34.7427 11.0029ZM42.3267 14H41.3169V13.334C40.9767 13.6025 40.6509 13.8084 40.3394 13.9517C40.0278 14.0949 39.6841 14.1665 39.3081 14.1665C38.6779 14.1665 38.1873 13.9749 37.8364 13.5918C37.4855 13.2051 37.3101 12.6393 37.3101 11.8945V8.00049H38.3198V11.4165C38.3198 11.7209 38.3341 11.9823 38.3628 12.2007C38.3914 12.4155 38.4523 12.5999 38.5454 12.7539C38.6421 12.9115 38.7674 13.026 38.9214 13.0977C39.0754 13.1693 39.2992 13.2051 39.5928 13.2051C39.8542 13.2051 40.1388 13.137 40.4468 13.001C40.7583 12.8649 41.0483 12.6912 41.3169 12.48V8.00049H42.3267V14ZM50.0986 6.94775H47.2412V14H46.1777V6.94775H43.3203V6.00244H50.0986V6.94775ZM54.9917 14H53.9819V13.334C53.6418 13.6025 53.3159 13.8084 53.0044 13.9517C52.6929 14.0949 52.3491 14.1665 51.9731 14.1665C51.3429 14.1665 50.8524 13.9749 50.5015 13.5918C50.1506 13.2051 49.9751 12.6393 49.9751 11.8945V8.00049H50.9849V11.4165C50.9849 11.7209 50.9992 11.9823 51.0278 12.2007C51.0565 12.4155 51.1174 12.5999 51.2104 12.7539C51.3071 12.9115 51.4325 13.026 51.5864 13.0977C51.7404 13.1693 51.9642 13.2051 52.2578 13.2051C52.5192 13.2051 52.8039 13.137 53.1118 13.001C53.4233 12.8649 53.7134 12.6912 53.9819 12.48V8.00049H54.9917V14ZM62.2588 10.9546C62.2588 11.4559 62.1872 11.9071 62.0439 12.3081C61.9043 12.7091 61.7145 13.0457 61.4746 13.3179C61.2204 13.6007 60.9411 13.8138 60.6367 13.957C60.3324 14.0967 59.9976 14.1665 59.6323 14.1665C59.2922 14.1665 58.995 14.1253 58.7407 14.043C58.4865 13.9642 58.2358 13.8568 57.9888 13.7207L57.9243 14H56.979V5.64258H57.9888V8.62891C58.2716 8.39616 58.5724 8.20638 58.8911 8.05957C59.2098 7.90918 59.5679 7.83398 59.9653 7.83398C60.6743 7.83398 61.2329 8.10612 61.6411 8.65039C62.0529 9.19466 62.2588 9.96273 62.2588 10.9546ZM61.2168 10.9814C61.2168 10.2653 61.0986 9.72282 60.8623 9.354C60.626 8.98161 60.2446 8.79541 59.7183 8.79541C59.4246 8.79541 59.1274 8.85986 58.8267 8.98877C58.5259 9.1141 58.2466 9.27702 57.9888 9.47754V12.915C58.2752 13.0439 58.5205 13.1335 58.7246 13.1836C58.9323 13.2337 59.1668 13.2588 59.4282 13.2588C59.9868 13.2588 60.4237 13.0762 60.7388 12.7109C61.0575 12.3421 61.2168 11.7656 61.2168 10.9814ZM68.8545 11.105H64.4341C64.4341 11.4738 64.4896 11.7961 64.6006 12.0718C64.7116 12.3439 64.8638 12.5677 65.0571 12.7432C65.2433 12.915 65.4635 13.0439 65.7178 13.1299C65.9756 13.2158 66.2585 13.2588 66.5664 13.2588C66.9746 13.2588 67.3846 13.1782 67.7964 13.0171C68.2118 12.8524 68.5072 12.6912 68.6826 12.5337H68.7363V13.6348C68.3962 13.778 68.0488 13.8979 67.6943 13.9946C67.3398 14.0913 66.9674 14.1396 66.5771 14.1396C65.5817 14.1396 64.8047 13.8711 64.2461 13.334C63.6875 12.7933 63.4082 12.027 63.4082 11.0352C63.4082 10.054 63.675 9.27523 64.2085 8.69873C64.7456 8.12223 65.451 7.83398 66.3247 7.83398C67.134 7.83398 67.757 8.07031 68.1938 8.54297C68.6343 9.01562 68.8545 9.68701 68.8545 10.5571V11.105ZM67.8716 10.3315C67.868 9.8016 67.7337 9.3916 67.4688 9.10156C67.2074 8.81152 66.8081 8.6665 66.271 8.6665C65.7303 8.6665 65.2988 8.82585 64.9766 9.14453C64.6579 9.46322 64.4771 9.85889 64.4341 10.3315H67.8716Z" fill="white"/>
<path d="M87.5737 12.9214C87.5737 13.6232 87.3589 14.1639 86.9292 14.5435C86.5031 14.923 85.9302 15.1128 85.2104 15.1128C85.0386 15.1128 84.8094 15.0967 84.5229 15.0645C84.2365 15.0358 83.9966 15 83.8032 14.957V13.9634H83.8623C84.0091 14.0135 84.1899 14.0654 84.4048 14.1191C84.6196 14.1729 84.8398 14.1997 85.0654 14.1997C85.3949 14.1997 85.6562 14.1621 85.8496 14.0869C86.0465 14.0117 86.1916 13.9043 86.2847 13.7646C86.3813 13.6214 86.4422 13.446 86.4673 13.2383C86.4959 13.0306 86.5103 12.7907 86.5103 12.5186V7.85107H84.8184V7.00244H87.5737V12.9214ZM94.2285 15H93.2241V14.3608C93.1346 14.4217 93.0129 14.5076 92.8589 14.6187C92.7085 14.7261 92.5617 14.812 92.4185 14.8765C92.2502 14.9588 92.0568 15.0269 91.8384 15.0806C91.62 15.1379 91.3639 15.1665 91.0703 15.1665C90.5296 15.1665 90.0713 14.9875 89.6953 14.6294C89.3193 14.2713 89.1313 13.8148 89.1313 13.2598C89.1313 12.805 89.228 12.438 89.4214 12.1587C89.6183 11.8758 89.8976 11.6538 90.2593 11.4927C90.6245 11.3315 91.0632 11.2223 91.5752 11.165C92.0872 11.1077 92.6369 11.0648 93.2241 11.0361V10.8804C93.2241 10.6512 93.1829 10.4614 93.1006 10.311C93.0218 10.1606 92.9072 10.0425 92.7568 9.95654C92.6136 9.87419 92.4417 9.81868 92.2412 9.79004C92.0407 9.76139 91.8312 9.74707 91.6128 9.74707C91.3478 9.74707 91.0524 9.78288 90.7266 9.85449C90.4007 9.92253 90.0641 10.0228 89.7168 10.1553H89.6631V9.12939C89.86 9.07568 90.1447 9.0166 90.5171 8.95215C90.8895 8.8877 91.2565 8.85547 91.6182 8.85547C92.0407 8.85547 92.4077 8.89128 92.7192 8.96289C93.0343 9.03092 93.3065 9.14909 93.5356 9.31738C93.7612 9.4821 93.9331 9.69515 94.0513 9.95654C94.1694 10.2179 94.2285 10.542 94.2285 10.9287V15ZM93.2241 13.5229V11.8525C92.9162 11.8704 92.5527 11.8973 92.1338 11.9331C91.7184 11.9689 91.389 12.0208 91.1455 12.0889C90.8555 12.1712 90.6209 12.3001 90.4419 12.4756C90.2629 12.6475 90.1733 12.8856 90.1733 13.1899C90.1733 13.5337 90.2772 13.7933 90.4849 13.9688C90.6925 14.1406 91.0094 14.2266 91.4355 14.2266C91.79 14.2266 92.1141 14.1585 92.4077 14.0225C92.7013 13.8828 92.9735 13.7163 93.2241 13.5229ZM101.189 15H100.18V11.584C100.18 11.3083 100.164 11.0505 100.131 10.8105C100.099 10.5671 100.04 10.3773 99.9541 10.2412C99.8646 10.0908 99.7357 9.97982 99.5674 9.9082C99.3991 9.83301 99.1807 9.79541 98.9121 9.79541C98.6364 9.79541 98.3481 9.86344 98.0474 9.99951C97.7466 10.1356 97.4583 10.3092 97.1826 10.5205V15H96.1729V9.00049H97.1826V9.6665C97.4977 9.40511 97.8236 9.20101 98.1602 9.0542C98.4967 8.90739 98.8423 8.83398 99.1968 8.83398C99.8449 8.83398 100.339 9.02913 100.679 9.41943C101.019 9.80973 101.189 10.3719 101.189 11.106V15ZM106.249 14.9463C106.059 14.9964 105.852 15.0376 105.626 15.0698C105.404 15.1021 105.205 15.1182 105.03 15.1182C104.417 15.1182 103.952 14.9535 103.633 14.624C103.315 14.2946 103.155 13.7664 103.155 13.0396V9.84912H102.473V9.00049H103.155V7.27637H104.165V9.00049H106.249V9.84912H104.165V12.583C104.165 12.8981 104.172 13.1452 104.187 13.3242C104.201 13.4997 104.251 13.6644 104.337 13.8184C104.416 13.9616 104.523 14.0672 104.659 14.1353C104.799 14.1997 105.01 14.2319 105.293 14.2319C105.458 14.2319 105.63 14.2087 105.809 14.1621C105.988 14.112 106.117 14.0708 106.195 14.0386H106.249V14.9463ZM112.496 12.105H108.075C108.075 12.4738 108.131 12.7961 108.242 13.0718C108.353 13.3439 108.505 13.5677 108.698 13.7432C108.884 13.915 109.105 14.0439 109.359 14.1299C109.617 14.2158 109.9 14.2588 110.208 14.2588C110.616 14.2588 111.026 14.1782 111.438 14.0171C111.853 13.8524 112.148 13.6912 112.324 13.5337H112.377V14.6348C112.037 14.778 111.69 14.8979 111.335 14.9946C110.981 15.0913 110.609 15.1396 110.218 15.1396C109.223 15.1396 108.446 14.8711 107.887 14.334C107.329 13.7933 107.049 13.027 107.049 12.0352C107.049 11.054 107.316 10.2752 107.85 9.69873C108.387 9.12223 109.092 8.83398 109.966 8.83398C110.775 8.83398 111.398 9.07031 111.835 9.54297C112.275 10.0156 112.496 10.687 112.496 11.5571V12.105ZM111.513 11.3315C111.509 10.8016 111.375 10.3916 111.11 10.1016C110.848 9.81152 110.449 9.6665 109.912 9.6665C109.371 9.6665 108.94 9.82585 108.618 10.1445C108.299 10.4632 108.118 10.8589 108.075 11.3315H111.513ZM124.28 15H123.146L122.362 12.771H118.903L118.119 15H117.04L119.951 7.00244H121.369L124.28 15ZM122.035 11.8579L120.633 7.93164L119.226 11.8579H122.035ZM130.279 15H129.27V14.3716C128.979 14.6222 128.677 14.8174 128.362 14.957C128.047 15.0967 127.705 15.1665 127.336 15.1665C126.62 15.1665 126.05 14.8908 125.628 14.3394C125.209 13.7879 125 13.0234 125 12.0459C125 11.5374 125.071 11.0845 125.214 10.687C125.361 10.2896 125.558 9.95117 125.805 9.67188C126.049 9.39974 126.332 9.19206 126.654 9.04883C126.98 8.9056 127.316 8.83398 127.664 8.83398C127.979 8.83398 128.258 8.868 128.501 8.93604C128.745 9.00049 129.001 9.10254 129.27 9.24219V6.64258H130.279V15ZM129.27 13.5229V10.0801C128.997 9.95833 128.754 9.87419 128.539 9.82764C128.324 9.78109 128.09 9.75781 127.835 9.75781C127.27 9.75781 126.829 9.95475 126.514 10.3486C126.199 10.7425 126.042 11.3011 126.042 12.0244C126.042 12.737 126.163 13.2795 126.407 13.6519C126.65 14.0207 127.041 14.2051 127.578 14.2051C127.864 14.2051 128.154 14.1424 128.448 14.0171C128.741 13.8882 129.015 13.7235 129.27 13.5229ZM137.289 12.105H132.868C132.868 12.4738 132.924 12.7961 133.035 13.0718C133.146 13.3439 133.298 13.5677 133.491 13.7432C133.677 13.915 133.898 14.0439 134.152 14.1299C134.41 14.2158 134.693 14.2588 135 14.2588C135.409 14.2588 135.819 14.1782 136.23 14.0171C136.646 13.8524 136.941 13.6912 137.117 13.5337H137.17V14.6348C136.83 14.778 136.483 14.8979 136.128 14.9946C135.774 15.0913 135.402 15.1396 135.011 15.1396C134.016 15.1396 133.239 14.8711 132.68 14.334C132.122 13.7933 131.842 13.027 131.842 12.0352C131.842 11.054 132.109 10.2752 132.643 9.69873C133.18 9.12223 133.885 8.83398 134.759 8.83398C135.568 8.83398 136.191 9.07031 136.628 9.54297C137.068 10.0156 137.289 10.687 137.289 11.5571V12.105ZM136.306 11.3315C136.302 10.8016 136.168 10.3916 135.903 10.1016C135.641 9.81152 135.242 9.6665 134.705 9.6665C134.164 9.6665 133.733 9.82585 133.411 10.1445C133.092 10.4632 132.911 10.8589 132.868 11.3315H136.306ZM144.099 11.9546C144.099 12.4559 144.028 12.9071 143.884 13.3081C143.745 13.7091 143.555 14.0457 143.315 14.3179C143.061 14.6007 142.781 14.8138 142.477 14.957C142.173 15.0967 141.838 15.1665 141.473 15.1665C141.132 15.1665 140.835 15.1253 140.581 15.043C140.327 14.9642 140.076 14.8568 139.829 14.7207L139.765 15H138.819V6.64258H139.829V9.62891C140.112 9.39616 140.413 9.20638 140.731 9.05957C141.05 8.90918 141.408 8.83398 141.806 8.83398C142.515 8.83398 143.073 9.10612 143.481 9.65039C143.893 10.1947 144.099 10.9627 144.099 11.9546ZM143.057 11.9814C143.057 11.2653 142.939 10.7228 142.703 10.354C142.466 9.98161 142.085 9.79541 141.559 9.79541C141.265 9.79541 140.968 9.85986 140.667 9.98877C140.366 10.1141 140.087 10.277 139.829 10.4775V13.915C140.116 14.0439 140.361 14.1335 140.565 14.1836C140.773 14.2337 141.007 14.2588 141.269 14.2588C141.827 14.2588 142.264 14.0762 142.579 13.7109C142.898 13.3421 143.057 12.7656 143.057 11.9814ZM150.786 12.0029C150.786 12.9805 150.535 13.7521 150.034 14.3179C149.533 14.8836 148.861 15.1665 148.02 15.1665C147.171 15.1665 146.496 14.8836 145.995 14.3179C145.497 13.7521 145.249 12.9805 145.249 12.0029C145.249 11.0254 145.497 10.2537 145.995 9.68799C146.496 9.11865 147.171 8.83398 148.02 8.83398C148.861 8.83398 149.533 9.11865 150.034 9.68799C150.535 10.2537 150.786 11.0254 150.786 12.0029ZM149.744 12.0029C149.744 11.2259 149.592 10.6494 149.288 10.2734C148.983 9.89388 148.561 9.7041 148.02 9.7041C147.472 9.7041 147.046 9.89388 146.742 10.2734C146.441 10.6494 146.291 11.2259 146.291 12.0029C146.291 12.7549 146.443 13.326 146.747 13.7163C147.051 14.103 147.476 14.2964 148.02 14.2964C148.557 14.2964 148.978 14.1048 149.282 13.7217C149.59 13.335 149.744 12.762 149.744 12.0029ZM159.901 9.00049L158.338 15H157.403L155.862 10.3755L154.331 15H153.402L151.823 9.00049H152.875L153.977 13.6465L155.475 9.00049H156.308L157.844 13.6465L158.886 9.00049H159.901ZM165.911 15H164.907V14.3608C164.817 14.4217 164.695 14.5076 164.542 14.6187C164.391 14.7261 164.244 14.812 164.101 14.8765C163.933 14.9588 163.739 15.0269 163.521 15.0806C163.303 15.1379 163.047 15.1665 162.753 15.1665C162.212 15.1665 161.754 14.9875 161.378 14.6294C161.002 14.2713 160.814 13.8148 160.814 13.2598C160.814 12.805 160.911 12.438 161.104 12.1587C161.301 11.8758 161.58 11.6538 161.942 11.4927C162.307 11.3315 162.746 11.2223 163.258 11.165C163.77 11.1077 164.319 11.0648 164.907 11.0361V10.8804C164.907 10.6512 164.866 10.4614 164.783 10.311C164.704 10.1606 164.59 10.0425 164.439 9.95654C164.296 9.87419 164.124 9.81868 163.924 9.79004C163.723 9.76139 163.514 9.74707 163.295 9.74707C163.03 9.74707 162.735 9.78288 162.409 9.85449C162.083 9.92253 161.747 10.0228 161.399 10.1553H161.346V9.12939C161.543 9.07568 161.827 9.0166 162.2 8.95215C162.572 8.8877 162.939 8.85547 163.301 8.85547C163.723 8.85547 164.09 8.89128 164.402 8.96289C164.717 9.03092 164.989 9.14909 165.218 9.31738C165.444 9.4821 165.616 9.69515 165.734 9.95654C165.852 10.2179 165.911 10.542 165.911 10.9287V15ZM164.907 13.5229V11.8525C164.599 11.8704 164.235 11.8973 163.816 11.9331C163.401 11.9689 163.072 12.0208 162.828 12.0889C162.538 12.1712 162.304 12.3001 162.125 12.4756C161.945 12.6475 161.856 12.8856 161.856 13.1899C161.856 13.5337 161.96 13.7933 162.167 13.9688C162.375 14.1406 162.692 14.2266 163.118 14.2266C163.473 14.2266 163.797 14.1585 164.09 14.0225C164.384 13.8828 164.656 13.7163 164.907 13.5229ZM168.876 15H167.866V6.64258H168.876V15ZM175.896 12.105H171.476C171.476 12.4738 171.531 12.7961 171.642 13.0718C171.753 13.3439 171.905 13.5677 172.099 13.7432C172.285 13.915 172.505 14.0439 172.759 14.1299C173.017 14.2158 173.3 14.2588 173.608 14.2588C174.016 14.2588 174.426 14.1782 174.838 14.0171C175.253 13.8524 175.549 13.6912 175.724 13.5337H175.778V14.6348C175.438 14.778 175.09 14.8979 174.736 14.9946C174.381 15.0913 174.009 15.1396 173.619 15.1396C172.623 15.1396 171.846 14.8711 171.288 14.334C170.729 13.7933 170.45 13.027 170.45 12.0352C170.45 11.054 170.716 10.2752 171.25 9.69873C171.787 9.12223 172.493 8.83398 173.366 8.83398C174.175 8.83398 174.799 9.07031 175.235 9.54297C175.676 10.0156 175.896 10.687 175.896 11.5571V12.105ZM174.913 11.3315C174.91 10.8016 174.775 10.3916 174.51 10.1016C174.249 9.81152 173.85 9.6665 173.312 9.6665C172.772 9.6665 172.34 9.82585 172.018 10.1445C171.699 10.4632 171.519 10.8589 171.476 11.3315H174.913Z" fill="#010101" fill-opacity="0.3"/>
<path d="M87.5737 11.9214C87.5737 12.6232 87.3589 13.1639 86.9292 13.5435C86.5031 13.923 85.9302 14.1128 85.2104 14.1128C85.0386 14.1128 84.8094 14.0967 84.5229 14.0645C84.2365 14.0358 83.9966 14 83.8032 13.957V12.9634H83.8623C84.0091 13.0135 84.1899 13.0654 84.4048 13.1191C84.6196 13.1729 84.8398 13.1997 85.0654 13.1997C85.3949 13.1997 85.6562 13.1621 85.8496 13.0869C86.0465 13.0117 86.1916 12.9043 86.2847 12.7646C86.3813 12.6214 86.4422 12.446 86.4673 12.2383C86.4959 12.0306 86.5103 11.7907 86.5103 11.5186V6.85107H84.8184V6.00244H87.5737V11.9214ZM94.2285 14H93.2241V13.3608C93.1346 13.4217 93.0129 13.5076 92.8589 13.6187C92.7085 13.7261 92.5617 13.812 92.4185 13.8765C92.2502 13.9588 92.0568 14.0269 91.8384 14.0806C91.62 14.1379 91.3639 14.1665 91.0703 14.1665C90.5296 14.1665 90.0713 13.9875 89.6953 13.6294C89.3193 13.2713 89.1313 12.8148 89.1313 12.2598C89.1313 11.805 89.228 11.438 89.4214 11.1587C89.6183 10.8758 89.8976 10.6538 90.2593 10.4927C90.6245 10.3315 91.0632 10.2223 91.5752 10.165C92.0872 10.1077 92.6369 10.0648 93.2241 10.0361V9.88037C93.2241 9.6512 93.1829 9.46143 93.1006 9.31104C93.0218 9.16064 92.9072 9.04248 92.7568 8.95654C92.6136 8.87419 92.4417 8.81868 92.2412 8.79004C92.0407 8.76139 91.8312 8.74707 91.6128 8.74707C91.3478 8.74707 91.0524 8.78288 90.7266 8.85449C90.4007 8.92253 90.0641 9.02279 89.7168 9.15527H89.6631V8.12939C89.86 8.07568 90.1447 8.0166 90.5171 7.95215C90.8895 7.8877 91.2565 7.85547 91.6182 7.85547C92.0407 7.85547 92.4077 7.89128 92.7192 7.96289C93.0343 8.03092 93.3065 8.14909 93.5356 8.31738C93.7612 8.4821 93.9331 8.69515 94.0513 8.95654C94.1694 9.21794 94.2285 9.54199 94.2285 9.92871V14ZM93.2241 12.5229V10.8525C92.9162 10.8704 92.5527 10.8973 92.1338 10.9331C91.7184 10.9689 91.389 11.0208 91.1455 11.0889C90.8555 11.1712 90.6209 11.3001 90.4419 11.4756C90.2629 11.6475 90.1733 11.8856 90.1733 12.1899C90.1733 12.5337 90.2772 12.7933 90.4849 12.9688C90.6925 13.1406 91.0094 13.2266 91.4355 13.2266C91.79 13.2266 92.1141 13.1585 92.4077 13.0225C92.7013 12.8828 92.9735 12.7163 93.2241 12.5229ZM101.189 14H100.18V10.584C100.18 10.3083 100.164 10.0505 100.131 9.81055C100.099 9.56706 100.04 9.37728 99.9541 9.24121C99.8646 9.09082 99.7357 8.97982 99.5674 8.9082C99.3991 8.83301 99.1807 8.79541 98.9121 8.79541C98.6364 8.79541 98.3481 8.86344 98.0474 8.99951C97.7466 9.13558 97.4583 9.30924 97.1826 9.52051V14H96.1729V8.00049H97.1826V8.6665C97.4977 8.40511 97.8236 8.20101 98.1602 8.0542C98.4967 7.90739 98.8423 7.83398 99.1968 7.83398C99.8449 7.83398 100.339 8.02913 100.679 8.41943C101.019 8.80973 101.189 9.37191 101.189 10.106V14ZM106.249 13.9463C106.059 13.9964 105.852 14.0376 105.626 14.0698C105.404 14.1021 105.205 14.1182 105.03 14.1182C104.417 14.1182 103.952 13.9535 103.633 13.624C103.315 13.2946 103.155 12.7664 103.155 12.0396V8.84912H102.473V8.00049H103.155V6.27637H104.165V8.00049H106.249V8.84912H104.165V11.583C104.165 11.8981 104.172 12.1452 104.187 12.3242C104.201 12.4997 104.251 12.6644 104.337 12.8184C104.416 12.9616 104.523 13.0672 104.659 13.1353C104.799 13.1997 105.01 13.2319 105.293 13.2319C105.458 13.2319 105.63 13.2087 105.809 13.1621C105.988 13.112 106.117 13.0708 106.195 13.0386H106.249V13.9463ZM112.496 11.105H108.075C108.075 11.4738 108.131 11.7961 108.242 12.0718C108.353 12.3439 108.505 12.5677 108.698 12.7432C108.884 12.915 109.105 13.0439 109.359 13.1299C109.617 13.2158 109.9 13.2588 110.208 13.2588C110.616 13.2588 111.026 13.1782 111.438 13.0171C111.853 12.8524 112.148 12.6912 112.324 12.5337H112.377V13.6348C112.037 13.778 111.69 13.8979 111.335 13.9946C110.981 14.0913 110.609 14.1396 110.218 14.1396C109.223 14.1396 108.446 13.8711 107.887 13.334C107.329 12.7933 107.049 12.027 107.049 11.0352C107.049 10.054 107.316 9.27523 107.85 8.69873C108.387 8.12223 109.092 7.83398 109.966 7.83398C110.775 7.83398 111.398 8.07031 111.835 8.54297C112.275 9.01562 112.496 9.68701 112.496 10.5571V11.105ZM111.513 10.3315C111.509 9.8016 111.375 9.3916 111.11 9.10156C110.848 8.81152 110.449 8.6665 109.912 8.6665C109.371 8.6665 108.94 8.82585 108.618 9.14453C108.299 9.46322 108.118 9.85889 108.075 10.3315H111.513ZM124.28 14H123.146L122.362 11.771H118.903L118.119 14H117.04L119.951 6.00244H121.369L124.28 14ZM122.035 10.8579L120.633 6.93164L119.226 10.8579H122.035ZM130.279 14H129.27V13.3716C128.979 13.6222 128.677 13.8174 128.362 13.957C128.047 14.0967 127.705 14.1665 127.336 14.1665C126.62 14.1665 126.05 13.8908 125.628 13.3394C125.209 12.7879 125 12.0234 125 11.0459C125 10.5374 125.071 10.0845 125.214 9.68701C125.361 9.28955 125.558 8.95117 125.805 8.67188C126.049 8.39974 126.332 8.19206 126.654 8.04883C126.98 7.9056 127.316 7.83398 127.664 7.83398C127.979 7.83398 128.258 7.868 128.501 7.93604C128.745 8.00049 129.001 8.10254 129.27 8.24219V5.64258H130.279V14ZM129.27 12.5229V9.08008C128.997 8.95833 128.754 8.87419 128.539 8.82764C128.324 8.78109 128.09 8.75781 127.835 8.75781C127.27 8.75781 126.829 8.95475 126.514 9.34863C126.199 9.74251 126.042 10.3011 126.042 11.0244C126.042 11.737 126.163 12.2795 126.407 12.6519C126.65 13.0207 127.041 13.2051 127.578 13.2051C127.864 13.2051 128.154 13.1424 128.448 13.0171C128.741 12.8882 129.015 12.7235 129.27 12.5229ZM137.289 11.105H132.868C132.868 11.4738 132.924 11.7961 133.035 12.0718C133.146 12.3439 133.298 12.5677 133.491 12.7432C133.677 12.915 133.898 13.0439 134.152 13.1299C134.41 13.2158 134.693 13.2588 135 13.2588C135.409 13.2588 135.819 13.1782 136.23 13.0171C136.646 12.8524 136.941 12.6912 137.117 12.5337H137.17V13.6348C136.83 13.778 136.483 13.8979 136.128 13.9946C135.774 14.0913 135.402 14.1396 135.011 14.1396C134.016 14.1396 133.239 13.8711 132.68 13.334C132.122 12.7933 131.842 12.027 131.842 11.0352C131.842 10.054 132.109 9.27523 132.643 8.69873C133.18 8.12223 133.885 7.83398 134.759 7.83398C135.568 7.83398 136.191 8.07031 136.628 8.54297C137.068 9.01562 137.289 9.68701 137.289 10.5571V11.105ZM136.306 10.3315C136.302 9.8016 136.168 9.3916 135.903 9.10156C135.641 8.81152 135.242 8.6665 134.705 8.6665C134.164 8.6665 133.733 8.82585 133.411 9.14453C133.092 9.46322 132.911 9.85889 132.868 10.3315H136.306ZM144.099 10.9546C144.099 11.4559 144.028 11.9071 143.884 12.3081C143.745 12.7091 143.555 13.0457 143.315 13.3179C143.061 13.6007 142.781 13.8138 142.477 13.957C142.173 14.0967 141.838 14.1665 141.473 14.1665C141.132 14.1665 140.835 14.1253 140.581 14.043C140.327 13.9642 140.076 13.8568 139.829 13.7207L139.765 14H138.819V5.64258H139.829V8.62891C140.112 8.39616 140.413 8.20638 140.731 8.05957C141.05 7.90918 141.408 7.83398 141.806 7.83398C142.515 7.83398 143.073 8.10612 143.481 8.65039C143.893 9.19466 144.099 9.96273 144.099 10.9546ZM143.057 10.9814C143.057 10.2653 142.939 9.72282 142.703 9.354C142.466 8.98161 142.085 8.79541 141.559 8.79541C141.265 8.79541 140.968 8.85986 140.667 8.98877C140.366 9.1141 140.087 9.27702 139.829 9.47754V12.915C140.116 13.0439 140.361 13.1335 140.565 13.1836C140.773 13.2337 141.007 13.2588 141.269 13.2588C141.827 13.2588 142.264 13.0762 142.579 12.7109C142.898 12.3421 143.057 11.7656 143.057 10.9814ZM150.786 11.0029C150.786 11.9805 150.535 12.7521 150.034 13.3179C149.533 13.8836 148.861 14.1665 148.02 14.1665C147.171 14.1665 146.496 13.8836 145.995 13.3179C145.497 12.7521 145.249 11.9805 145.249 11.0029C145.249 10.0254 145.497 9.25374 145.995 8.68799C146.496 8.11865 147.171 7.83398 148.02 7.83398C148.861 7.83398 149.533 8.11865 150.034 8.68799C150.535 9.25374 150.786 10.0254 150.786 11.0029ZM149.744 11.0029C149.744 10.2259 149.592 9.64941 149.288 9.27344C148.983 8.89388 148.561 8.7041 148.02 8.7041C147.472 8.7041 147.046 8.89388 146.742 9.27344C146.441 9.64941 146.291 10.2259 146.291 11.0029C146.291 11.7549 146.443 12.326 146.747 12.7163C147.051 13.103 147.476 13.2964 148.02 13.2964C148.557 13.2964 148.978 13.1048 149.282 12.7217C149.59 12.335 149.744 11.762 149.744 11.0029ZM159.901 8.00049L158.338 14H157.403L155.862 9.37549L154.331 14H153.402L151.823 8.00049H152.875L153.977 12.6465L155.475 8.00049H156.308L157.844 12.6465L158.886 8.00049H159.901ZM165.911 14H164.907V13.3608C164.817 13.4217 164.695 13.5076 164.542 13.6187C164.391 13.7261 164.244 13.812 164.101 13.8765C163.933 13.9588 163.739 14.0269 163.521 14.0806C163.303 14.1379 163.047 14.1665 162.753 14.1665C162.212 14.1665 161.754 13.9875 161.378 13.6294C161.002 13.2713 160.814 12.8148 160.814 12.2598C160.814 11.805 160.911 11.438 161.104 11.1587C161.301 10.8758 161.58 10.6538 161.942 10.4927C162.307 10.3315 162.746 10.2223 163.258 10.165C163.77 10.1077 164.319 10.0648 164.907 10.0361V9.88037C164.907 9.6512 164.866 9.46143 164.783 9.31104C164.704 9.16064 164.59 9.04248 164.439 8.95654C164.296 8.87419 164.124 8.81868 163.924 8.79004C163.723 8.76139 163.514 8.74707 163.295 8.74707C163.03 8.74707 162.735 8.78288 162.409 8.85449C162.083 8.92253 161.747 9.02279 161.399 9.15527H161.346V8.12939C161.543 8.07568 161.827 8.0166 162.2 7.95215C162.572 7.8877 162.939 7.85547 163.301 7.85547C163.723 7.85547 164.09 7.89128 164.402 7.96289C164.717 8.03092 164.989 8.14909 165.218 8.31738C165.444 8.4821 165.616 8.69515 165.734 8.95654C165.852 9.21794 165.911 9.54199 165.911 9.92871V14ZM164.907 12.5229V10.8525C164.599 10.8704 164.235 10.8973 163.816 10.9331C163.401 10.9689 163.072 11.0208 162.828 11.0889C162.538 11.1712 162.304 11.3001 162.125 11.4756C161.945 11.6475 161.856 11.8856 161.856 12.1899C161.856 12.5337 161.96 12.7933 162.167 12.9688C162.375 13.1406 162.692 13.2266 163.118 13.2266C163.473 13.2266 163.797 13.1585 164.09 13.0225C164.384 12.8828 164.656 12.7163 164.907 12.5229ZM168.876 14H167.866V5.64258H168.876V14ZM175.896 11.105H171.476C171.476 11.4738 171.531 11.7961 171.642 12.0718C171.753 12.3439 171.905 12.5677 172.099 12.7432C172.285 12.915 172.505 13.0439 172.759 13.1299C173.017 13.2158 173.3 13.2588 173.608 13.2588C174.016 13.2588 174.426 13.1782 174.838 13.0171C175.253 12.8524 175.549 12.6912 175.724 12.5337H175.778V13.6348C175.438 13.778 175.09 13.8979 174.736 13.9946C174.381 14.0913 174.009 14.1396 173.619 14.1396C172.623 14.1396 171.846 13.8711 171.288 13.334C170.729 12.7933 170.45 12.027 170.45 11.0352C170.45 10.054 170.716 9.27523 171.25 8.69873C171.787 8.12223 172.493 7.83398 173.366 7.83398C174.175 7.83398 174.799 8.07031 175.235 8.54297C175.676 9.01562 175.896 9.68701 175.896 10.5571V11.105ZM174.913 10.3315C174.91 9.8016 174.775 9.3916 174.51 9.10156C174.249 8.81152 173.85 8.6665 173.312 8.6665C172.772 8.6665 172.34 8.82585 172.018 9.14453C171.699 9.46322 171.519 9.85889 171.476 10.3315H174.913Z" fill="white"/>
</g>
<defs>
<linearGradient id="paint0_linear_1125_1284" x1="0" y1="0" x2="0" y2="400" gradientUnits="userSpaceOnUse">
<stop stop-color="#BBBBBB" stop-opacity="0.1"/>
<stop offset="1" stop-opacity="0.1"/>
</linearGradient>
<clipPath id="clip0_1125_1284">
<rect width="187" height="20" fill="white"/>
</clipPath>
</defs>
</svg>
